<svg width="21" height="21" viewBox="0 0 21 21" fill="currentColor" xmlns="http://www.w3.org/2000/svg">
<rect x="1" y="1.5" width="16" height="16" rx="4" fill="currentColor" stroke="currentColor" stroke-width="2"/>
<circle cx="9.2584" cy="7.76035" r="2.39121" fill="#ffffffff"/>
<path d="M4.67106 13.2322C5.49633 11.5927 7.4865 11.0215 9.32199 11.0215C11.157 11.0215 13.2152 11.5729 13.9185 13.2678C14.197 13.9389 14.0662 14.4996 12.8515 14.4996C9.82609 14.4996 8.14543 14.4996 5.45657 14.4996C4.35794 14.4996 4.32535 13.919 4.67106 13.2322Z" fill="#ffffffff"/>
<circle cx="14.0437" cy="6.23906" r="1.73906" fill="#ffffffff"/>
<path d="M10.7079 10.2181C11.3081 9.02575 12.7554 8.61035 14.0904 8.61035C15.4249 8.61035 16.9218 9.01135 17.4333 10.244C17.6358 10.7321 17.5407 11.1399 16.6573 11.1399C14.457 11.1399 13.2347 11.1399 11.2791 11.1399C10.4801 11.1399 10.4564 10.7176 10.7079 10.2181Z" fill="#ffffffff"/>
<circle cx="4.47734" cy="6.23906" r="1.73906" fill="#ffffffff"/>
<path d="M1.14145 10.2181C1.74165 9.02575 3.18904 8.61035 4.52395 8.61035C5.85852 8.61035 7.35537 9.01135 7.86688 10.244C8.06943 10.7321 7.97428 11.1399 7.09085 11.1399C4.89056 11.1399 3.66826 11.1399 1.71273 11.1399C0.913732 11.1399 0.890025 10.7176 1.14145 10.2181Z" fill="#ffffffff"/>
</svg>
