<svg width="19" height="19" viewBox="0 0 19 19" fill="none" xmlns="http://www.w3.org/2000/svg">
<path d="M16.6158 3.77792V5.28873C16.6158 6.67111 15.9889 7.41896 14.7273 7.53227C14.6065 7.54738 14.4781 7.55493 14.3496 7.55493H3.77402C3.6456 7.55493 3.51718 7.54738 3.39632 7.53227C2.1348 7.41896 1.50781 6.67111 1.50781 5.28873V3.77792C1.50781 2.26712 2.26321 1.51172 3.77402 1.51172H14.3496C15.8604 1.51172 16.6158 2.26712 16.6158 3.77792Z" fill="currentColor"/>
<path d="M4.15384 8.5C3.73837 8.5 3.39844 8.83993 3.39844 9.2554V14.3544C3.39844 15.8652 3.77614 16.6206 5.66464 16.6206H12.4633C14.3518 16.6206 14.7295 15.8652 14.7295 14.3544V9.2554C14.7295 8.83993 14.3895 8.5 13.9741 8.5H4.15384ZM10.4388 11.8993H7.68912C7.3794 11.8993 7.12257 11.6425 7.12257 11.3328C7.12257 11.023 7.3794 10.7662 7.68912 10.7662H10.4388C10.7485 10.7662 11.0053 11.023 11.0053 11.3328C11.0053 11.6425 10.7485 11.8993 10.4388 11.8993Z" fill="currentColor"/>
</svg>
