<svg width="18" height="18" viewBox="0 0 18 18" fill="none" xmlns="http://www.w3.org/2000/svg">
<path d="M15.1581 5.86312L9.38315 9.20813C9.15065 9.34313 8.85815 9.34313 8.61815 9.20813L2.84315 5.86312C2.43065 5.62313 2.32565 5.06063 2.64065 4.70813C2.85815 4.46063 3.10565 4.25812 3.36815 4.11562L7.43315 1.86562C8.30315 1.37813 9.71315 1.37813 10.5831 1.86562L14.6482 4.11562C14.9107 4.25812 15.1581 4.46813 15.3757 4.70813C15.6756 5.06063 15.5706 5.62313 15.1581 5.86312Z" fill="#FDFDFD"/>
<path d="M8.57188 10.6032V15.7182C8.57188 16.2882 7.99437 16.6632 7.48437 16.4157C5.93937 15.6582 3.33687 14.2407 3.33687 14.2407C2.42187 13.7232 1.67188 12.4182 1.67188 11.3457V7.4757C1.67188 6.8832 2.29437 6.5082 2.80437 6.8007L8.19688 9.9282C8.42188 10.0707 8.57188 10.3257 8.57188 10.6032Z" fill="#FDFDFD"/>
<path d="M9.42773 10.6032V15.7182C9.42773 16.2882 10.0052 16.6632 10.5152 16.4157C12.0602 15.6582 14.6627 14.2407 14.6627 14.2407C15.5777 13.7232 16.3277 12.4182 16.3277 11.3457V7.4757C16.3277 6.8832 15.7052 6.5082 15.1952 6.8007L9.80273 9.9282C9.57773 10.0707 9.42773 10.3257 9.42773 10.6032Z" fill="#FDFDFD"/>
</svg>
