<svg width="37" height="37" viewBox="0 0 37 37" fill="none" xmlns="http://www.w3.org/2000/svg">
<path d="M24.9602 3.08203H12.0411C6.4294 3.08203 3.08398 6.42745 3.08398 12.0391V24.9429C3.08398 30.5699 6.4294 33.9154 12.0411 33.9154H24.9448C30.5565 33.9154 33.9019 30.57 33.9019 24.9583V12.0391C33.9173 6.42745 30.5719 3.08203 24.9602 3.08203ZM15.2786 24.9583C15.2786 25.9449 14.4769 26.7466 13.4748 26.7466C12.4882 26.7466 11.6865 25.9449 11.6865 24.9583V19.9324C11.6865 18.9458 12.4882 18.1441 13.4748 18.1441C14.4769 18.1441 15.2786 18.9458 15.2786 19.9324V24.9583ZM25.3148 24.9583C25.3148 25.9449 24.5132 26.7466 23.5265 26.7466C22.5244 26.7466 21.7227 25.9449 21.7227 24.9583V12.0391C21.7227 11.0524 22.5244 10.2508 23.5265 10.2508C24.5132 10.2508 25.3148 11.0524 25.3148 12.0391V24.9583Z" fill="currentColor"/>
</svg>
