<svg width="57" height="57" viewBox="0 0 57 57" fill="none" xmlns="http://www.w3.org/2000/svg">
<path d="M28.5 0C42.3512 0.000173174 53.5801 11.2289 53.5801 25.0801C53.58 38.9312 42.3511 50.16 28.5 50.1602C28.1431 50.1602 27.7879 50.1521 27.4347 50.1367C26.6925 50.1044 25.9494 50.2396 25.286 50.5741L18.3407 54.0756C15.6804 55.4168 12.54 53.4831 12.54 50.5038V44.4751C12.54 44.4676 12.5473 44.4624 12.5544 44.4647C12.5658 44.4686 12.5741 44.4536 12.5648 44.4459C6.98088 39.846 3.41995 32.8794 3.41992 25.0801C3.41992 11.2288 14.6487 0 28.5 0Z" fill="#004E32"/>
<path fill-rule="evenodd" clip-rule="evenodd" d="M40.3007 14.3464C41.3598 15.1585 41.562 16.6745 40.7526 17.7357L28.7423 33.4829C28.3188 34.0382 27.6769 34.3832 26.9812 34.4295C26.2856 34.4758 25.6039 34.2189 25.1109 33.7246L17.4879 26.0815C16.5452 25.1363 16.5452 23.6064 17.4879 22.6612C18.4342 21.7124 19.971 21.7124 20.9172 22.6612L26.5779 28.3368L36.9028 14.7994C37.7151 13.7344 39.2378 13.5314 40.3007 14.3464Z" fill="white"/>
</svg>
