<svg width="18" height="18" viewBox="0 0 18 18" fill="none" xmlns="http://www.w3.org/2000/svg">
<path d="M10.1844 1.41992H6.84905C6.11101 1.41992 5.50781 2.01603 5.50781 2.75406V3.42113C5.50781 4.15917 6.10392 4.75527 6.84195 4.75527H10.1844C10.9224 4.75527 11.5185 4.15917 11.5185 3.42113V2.75406C11.5256 2.01603 10.9224 1.41992 10.1844 1.41992Z" fill="currentColor"/>
<path d="M12.2355 3.42178C12.2355 4.55012 11.313 5.47266 10.1847 5.47266H6.8493C5.72096 5.47266 4.79842 4.55012 4.79842 3.42178C4.79842 3.02437 4.37263 2.77599 4.0178 2.9605C3.0172 3.49274 2.33594 4.55012 2.33594 5.76362V12.4414C2.33594 14.1871 3.76233 15.6135 5.50807 15.6135H11.5259C13.2716 15.6135 14.698 14.1871 14.698 12.4414V5.76362C14.698 4.55012 14.0168 3.49274 13.0161 2.9605C12.6613 2.77599 12.2355 3.02437 12.2355 3.42178ZM10.8872 9.0351L8.04861 11.8737C7.94216 11.9801 7.80733 12.0298 7.6725 12.0298C7.53766 12.0298 7.40283 11.9801 7.29638 11.8737L6.23191 10.8092C6.02611 10.6034 6.02611 10.2628 6.23191 10.057C6.43771 9.85119 6.77834 9.85119 6.98414 10.057L7.6725 10.7453L10.135 8.28287C10.3408 8.07707 10.6814 8.07707 10.8872 8.28287C11.093 8.48867 11.093 8.8293 10.8872 9.0351Z" fill="currentColor"/>
</svg>
