<svg width="30" height="30" viewBox="0 0 30 30" fill="none" xmlns="http://www.w3.org/2000/svg">
<path d="M10.0625 12.675V14.125H14.1375V10.0625H12.6875C11.2375 10.0625 10.0625 11.2375 10.0625 12.675Z" fill="white"/>
<path d="M10.0625 17.325C10.0625 18.7625 11.2375 19.9375 12.675 19.9375H14.125V15.875H10.0625V17.325Z" fill="white"/>
<path d="M15.875 19.9375H17.325C18.7625 19.9375 19.9375 18.7625 19.9375 17.325V15.875H15.875V19.9375Z" fill="white"/>
<path d="M20.2375 2.5H9.7625C5.2125 2.5 2.5 5.2125 2.5 9.7625V20.225C2.5 24.7875 5.2125 27.5 9.7625 27.5H20.225C24.775 27.5 27.4875 24.7875 27.4875 20.2375V9.7625C27.5 5.2125 24.7875 2.5 20.2375 2.5ZM21.6875 17.325C21.6875 19.725 19.725 21.6875 17.325 21.6875H12.675C10.275 21.6875 8.3125 19.7375 8.3125 17.325V12.675C8.3125 10.275 10.275 8.3125 12.675 8.3125H17.325C19.725 8.3125 21.6875 10.2625 21.6875 12.675V17.325Z" fill="white"/>
<path d="M17.325 10.0625H15.875V14.1375H19.95V12.6875C19.9375 11.2375 18.7625 10.0625 17.325 10.0625Z" fill="white"/>
</svg>
