<svg width="14" height="16" viewBox="0 0 14 16" fill="none" xmlns="http://www.w3.org/2000/svg">
<path d="M1 3.47059H13M5.5 11.7059V6.76471M8.5 11.7059V6.76471M10 15H4C3.17157 15 2.5 14.2626 2.5 13.3529V4.29412C2.5 3.83929 2.83579 3.47059 3.25 3.47059H10.75C11.1642 3.47059 11.5 3.83929 11.5 4.29412V13.3529C11.5 14.2626 10.8284 15 10 15ZM5.5 3.47059H8.5C8.91421 3.47059 9.25 3.10188 9.25 2.64706V1.82353C9.25 1.36871 8.91421 1 8.5 1H5.5C5.08579 1 4.75 1.36871 4.75 1.82353V2.64706C4.75 3.10188 5.08579 3.47059 5.5 3.47059Z" stroke="currentColor" stroke-width="2" stroke-linecap="round" stroke-linejoin="round"/>
</svg>
