<svg width="28" height="26" viewBox="0 0 28 26" fill="currentColor" xmlns="http://www.w3.org/2000/svg">
<path d="M27.6964 10.0147C27.9839 10.3501 27.9839 10.8293 27.6964 11.1168L23.3359 15.4772C23.0484 15.7647 22.5693 15.7647 22.2818 15.4772L21.1797 14.3751C20.8922 14.0876 20.8922 13.6085 21.1797 13.273L21.7068 12.746L20.3172 11.3564C19.3109 11.6439 18.2089 11.3564 17.3943 10.5897L15.0464 8.2418C14.4714 7.6668 14.1359 6.85221 14.1359 6.03763V5.17513L9.77552 2.97096C12.7943 0.000130668 17.6339 0.000130668 20.6526 2.97096L22.8089 5.17513C23.6234 5.9418 23.863 7.0918 23.5755 8.09805L24.9651 9.48763L25.5401 8.96055C25.8276 8.67305 26.3068 8.67305 26.5943 8.96055L27.6964 10.0147ZM13.9443 9.29596L16.2922 11.6439C16.4839 11.8355 16.6755 11.9793 16.8672 12.123L5.46302 24.3418C4.31302 25.5397 2.34844 25.5876 1.19844 24.3897C0.00052084 23.2397 0.0484375 21.2751 1.24635 20.1251L13.4651 8.72096C13.6089 8.91263 13.7526 9.15221 13.9443 9.29596Z" fill="currentColor"/>
</svg>
