<svg width="25" height="25" viewBox="0 0 25 25" fill="currentColor" xmlns="http://www.w3.org/2000/svg">
<path d="M19.9333 9.20013C22.425 9.20013 24.5333 11.3085 24.5333 13.8001V19.9335C24.5333 22.473 22.425 24.5335 19.9333 24.5335H4.6C2.06042 24.5335 0 22.473 0 19.9335V13.8001C0 11.3085 2.06042 9.20013 4.6 9.20013H10.7333C10.7333 10.398 11.1646 11.5001 11.8833 12.2668H7.66667C5.12708 12.2668 3.06667 14.3751 3.06667 16.8668C3.06667 19.4064 5.12708 21.4668 7.66667 21.4668H16.8667V21.5147C19.4062 21.5147 21.4667 19.4543 21.4667 16.9147C21.4667 14.9022 20.1729 13.2251 18.4479 12.6022C19.3583 11.7397 19.8854 10.5418 19.9333 9.20013ZM15.3333 12.2668C13.6083 12.2668 12.2667 10.9251 12.2667 9.20013C12.2667 7.52305 13.6083 6.13346 15.3333 6.13346C17.0104 6.13346 18.4 7.52305 18.4 9.20013C18.4 10.9251 17.0104 12.2668 15.3333 12.2668ZM9.96667 4.60013C8.67292 4.60013 7.66667 3.59388 7.66667 2.30013C7.66667 1.0543 8.67292 0.000130653 9.96667 0.000130653C11.2125 0.000130653 12.2667 1.0543 12.2667 2.30013C12.2667 3.59388 11.2125 4.60013 9.96667 4.60013ZM18.4 3.0668C17.5375 3.0668 16.8667 2.39596 16.8667 1.53346C16.8667 0.718881 17.5375 0.000130653 18.4 0.000130653C19.2146 0.000130653 19.9333 0.718881 19.9333 1.53346C19.9333 2.39596 19.2146 3.0668 18.4 3.0668ZM7.66667 13.8001H16.8667C18.5437 13.8001 19.9333 15.1897 19.9333 16.8668C19.9333 18.5918 18.5437 19.9335 16.8667 19.9335H7.66667C5.94167 19.9335 4.6 18.5918 4.6 16.8668C4.6 15.1897 5.94167 13.8001 7.66667 13.8001Z" fill="currentColor"/>
</svg>
