<svg width="18" height="18" viewBox="0 0 18 18" fill="none" xmlns="http://www.w3.org/2000/svg">
<path d="M12.1425 1.5H5.8575C3.1275 1.5 1.5 3.1275 1.5 5.8575V12.135C1.5 14.8725 3.1275 16.5 5.8575 16.5H12.135C14.865 16.5 16.4925 14.8725 16.4925 12.1425V5.8575C16.5 3.1275 14.8725 1.5 12.1425 1.5ZM12.615 10.68L9.3975 13.8975C9.2925 14.0025 9.15 14.0625 9 14.0625C8.85 14.0625 8.7075 14.0025 8.6025 13.8975L5.385 10.68C5.1675 10.4625 5.1675 10.1025 5.385 9.885C5.6025 9.6675 5.9625 9.6675 6.18 9.885L8.4375 12.1425V4.5C8.4375 4.1925 8.6925 3.9375 9 3.9375C9.3075 3.9375 9.5625 4.1925 9.5625 4.5V12.1425L11.82 9.885C12.0375 9.6675 12.3975 9.6675 12.615 9.885C12.7275 9.9975 12.78 10.14 12.78 10.2825C12.78 10.425 12.72 10.575 12.615 10.68Z" fill="#FDFDFD"/>
</svg>
