<svg width="37" height="37" viewBox="0 0 37 37" fill="none" xmlns="http://www.w3.org/2000/svg">
<path d="M24.9602 3.08203H12.0411C6.4294 3.08203 3.08398 6.42745 3.08398 12.0391V24.9429C3.08398 30.57 6.4294 33.9154 12.0411 33.9154H24.9448C30.5565 33.9154 33.9019 30.57 33.9019 24.9583V12.0391C33.9173 6.42745 30.5719 3.08203 24.9602 3.08203ZM26.024 22.0908C26.024 22.2295 25.9932 22.3683 25.9469 22.507C25.839 22.7691 25.6232 22.9849 25.3611 23.0929C25.2223 23.1545 25.0836 23.1699 24.9448 23.1699H22.0773C21.4761 23.1699 20.9981 22.692 20.9981 22.0908C20.9981 21.4895 21.4761 21.0116 22.0773 21.0116H22.3548L19.1019 17.7587L17.5294 20.102C17.3444 20.3641 17.0669 20.5491 16.7431 20.58C16.4194 20.6108 16.1111 20.5029 15.8798 20.2716L11.2857 15.6774C10.8694 15.2612 10.8694 14.5829 11.2857 14.1512C11.7019 13.7195 12.3802 13.7349 12.8119 14.1512L16.4811 17.8204L18.0536 15.477C18.2386 15.2149 18.5161 15.0299 18.8398 14.9991C19.179 14.9683 19.4719 15.0762 19.7031 15.3074L23.8965 19.5008V19.2233C23.8965 18.622 24.3744 18.1441 24.9757 18.1441C25.5769 18.1441 26.0548 18.622 26.0548 19.2233V22.0908H26.024Z" fill="currentColor"/>
</svg>
