<svg width="18" height="18" viewBox="0 0 18 18" fill="none" xmlns="http://www.w3.org/2000/svg">
<path d="M12.1425 1.5H5.8575C3.1275 1.5 1.5 3.1275 1.5 5.8575V12.135C1.5 14.8725 3.1275 16.5 5.8575 16.5H12.135C14.865 16.5 16.4925 14.8725 16.4925 12.1425V5.8575C16.5 3.1275 14.8725 1.5 12.1425 1.5ZM12.615 8.115C12.3975 8.3325 12.0375 8.3325 11.82 8.115L9.5625 5.8575V13.5C9.5625 13.8075 9.3075 14.0625 9 14.0625C8.6925 14.0625 8.4375 13.8075 8.4375 13.5V5.8575L6.18 8.115C5.9625 8.3325 5.6025 8.3325 5.385 8.115C5.2725 8.0025 5.22 7.86 5.22 7.7175C5.22 7.575 5.28 7.425 5.385 7.32L8.6025 4.1025C8.7075 3.9975 8.85 3.9375 9 3.9375C9.15 3.9375 9.2925 3.9975 9.3975 4.1025L12.615 7.32C12.8325 7.5375 12.8325 7.89 12.615 8.115Z" fill="#FDFDFD"/>
</svg>
