<svg width="18" height="18" viewBox="0 0 18 18" fill="none" xmlns="http://www.w3.org/2000/svg">
<path d="M13.1475 5.8275C13.095 5.82 13.0425 5.82 12.99 5.8275C11.8275 5.79 10.905 4.8375 10.905 3.6675C10.905 2.475 11.8725 1.5 13.0725 1.5C14.265 1.5 15.24 2.4675 15.24 3.6675C15.2325 4.8375 14.31 5.79 13.1475 5.8275Z" fill="#FDFDFD"/>
<path d="M15.5925 11.0233C14.7525 11.5858 13.575 11.7958 12.4875 11.6533C12.7725 11.0383 12.9225 10.3558 12.93 9.63585C12.93 8.88585 12.765 8.17335 12.45 7.55085C13.56 7.40085 14.7375 7.61085 15.585 8.17335C16.7699 8.95335 16.77 10.2358 15.5925 11.0233Z" fill="#FDFDFD"/>
<path d="M4.83012 5.8275C4.88262 5.82 4.93512 5.82 4.98762 5.8275C6.15012 5.79 7.07262 4.8375 7.07262 3.6675C7.07262 2.4675 6.10512 1.5 4.90512 1.5C3.71262 1.5 2.74512 2.4675 2.74512 3.6675C2.74512 4.8375 3.66762 5.79 4.83012 5.8275Z" fill="#FDFDFD"/>
<path d="M4.91259 9.63599C4.91259 10.3635 5.07009 11.0535 5.35509 11.676C4.29759 11.7885 3.19509 11.5635 2.38509 11.031C1.20009 10.2435 1.20009 8.96099 2.38509 8.17349C3.18759 7.63349 4.32009 7.41599 5.38509 7.53599C5.07759 8.16599 4.91259 8.87849 4.91259 9.63599Z" fill="#FDFDFD"/>
<path d="M9.0901 11.9025C9.0301 11.895 8.9626 11.895 8.8951 11.9025C7.5151 11.8575 6.4126 10.725 6.4126 9.33C6.4201 7.905 7.5676 6.75 9.0001 6.75C10.4251 6.75 11.5801 7.905 11.5801 9.33C11.5726 10.725 10.4776 11.8575 9.0901 11.9025Z" fill="#FDFDFD"/>
<path d="M6.6526 13.4555C5.5201 14.213 5.5201 15.458 6.6526 16.208C7.9426 17.0705 10.0576 17.0705 11.3476 16.208C12.4801 15.4505 12.4801 14.2055 11.3476 13.4555C10.0651 12.593 7.9501 12.593 6.6526 13.4555Z" fill="#FDFDFD"/>
</svg>
