<svg width="37" height="37" viewBox="0 0 37 37" fill="none" xmlns="http://www.w3.org/2000/svg">
<path d="M24.9602 3.08203H12.0411C6.4294 3.08203 3.08398 6.42745 3.08398 12.0391V24.9583C3.08398 29.2904 5.07273 32.2658 8.57232 33.3912C9.58982 33.7458 10.7615 33.9154 12.0411 33.9154H24.9602C26.2398 33.9154 27.4115 33.7458 28.429 33.3912C31.9286 32.2658 33.9173 29.2904 33.9173 24.9583V12.0391C33.9173 6.42745 30.5719 3.08203 24.9602 3.08203ZM31.6048 24.9583C31.6048 28.2575 30.3098 30.3387 27.7044 31.202C26.209 28.2574 22.6632 26.1608 18.5007 26.1608C14.3382 26.1608 10.8077 28.242 9.2969 31.202H9.28148C6.7069 30.3695 5.39648 28.2729 5.39648 24.9737V12.0391C5.39648 7.69161 7.69357 5.39453 12.0411 5.39453H24.9602C29.3077 5.39453 31.6048 7.69161 31.6048 12.0391V24.9583Z" fill="currentColor"/>
<path d="M18.5016 12.332C15.4491 12.332 12.9824 14.7987 12.9824 17.8512C12.9824 20.9037 15.4491 23.3858 18.5016 23.3858C21.5541 23.3858 24.0208 20.9037 24.0208 17.8512C24.0208 14.7987 21.5541 12.332 18.5016 12.332Z" fill="currentColor"/>
</svg>
