<svg width="16" height="16" viewBox="0 0 16 16" fill="none" xmlns="http://www.w3.org/2000/svg">
<path d="M9.70065 14.9454C9.48065 14.9454 9.27398 14.7987 9.21398 14.572C9.14732 14.3054 9.30065 14.032 9.56732 13.9587C12.274 13.2454 14.1607 10.792 14.1607 7.99203C14.1607 4.59203 11.394 1.82536 7.99398 1.82536C5.10732 1.82536 3.21398 3.51203 2.32732 4.53203H4.28732C4.56065 4.53203 4.78732 4.7587 4.78732 5.03203C4.78732 5.30536 4.57398 5.5387 4.29398 5.5387H1.34065C1.29398 5.5387 1.24732 5.53203 1.20065 5.5187C1.14065 5.4987 1.08732 5.47203 1.04065 5.4387C0.980651 5.3987 0.933984 5.34536 0.900651 5.28536C0.867318 5.2187 0.840651 5.15203 0.833984 5.0787C0.833984 5.0587 0.833984 5.04536 0.833984 5.02536V1.9987C0.833984 1.72536 1.06065 1.4987 1.33398 1.4987C1.60732 1.4987 1.83398 1.72536 1.83398 1.9987V3.59203C2.92065 2.42536 4.96732 0.832031 8.00065 0.832031C11.954 0.832031 15.1673 4.04536 15.1673 7.9987C15.1673 11.252 12.974 14.1054 9.82732 14.932C9.78732 14.9387 9.74065 14.9454 9.70065 14.9454Z" fill="currentColor"/>
<path d="M7.52732 15.1533C7.51398 15.1533 7.49398 15.1533 7.48065 15.1467C6.76732 15.1 6.06732 14.94 5.40065 14.68C5.20732 14.6067 5.08065 14.4133 5.08065 14.2067C5.08065 14.1467 5.09398 14.0867 5.11398 14.0333C5.21398 13.78 5.50732 13.6467 5.76065 13.7467C6.33398 13.9733 6.94065 14.1067 7.55398 14.1533H7.56065C7.82732 14.1667 8.02732 14.3933 8.02732 14.66C8.02732 14.6667 8.02732 14.68 8.02732 14.6867C8.00732 14.9467 7.78732 15.1533 7.52732 15.1533ZM3.85398 13.72C3.74065 13.72 3.63398 13.6867 3.54065 13.6133C2.98065 13.1667 2.49398 12.64 2.08732 12.0467C2.02732 11.96 1.99398 11.8667 1.99398 11.7667C1.99398 11.6 2.07398 11.4467 2.21398 11.3533C2.43398 11.2 2.76065 11.26 2.90732 11.48C3.26065 11.9933 3.68065 12.4467 4.16732 12.8267C4.28065 12.92 4.35398 13.06 4.35398 13.2133C4.35398 13.3267 4.32065 13.44 4.24732 13.5333C4.15398 13.6533 4.00732 13.72 3.85398 13.72ZM1.62732 10.4667C1.40732 10.4667 1.21398 10.3267 1.15398 10.12C0.940651 9.43333 0.833984 8.72 0.833984 8C0.833984 7.72667 1.06065 7.5 1.33398 7.5C1.60732 7.5 1.83398 7.72667 1.83398 8C1.83398 8.62 1.92732 9.23333 2.10732 9.82C2.12065 9.86667 2.12732 9.92 2.12732 9.97333C2.12732 10.1933 1.98732 10.38 1.78065 10.4467C1.72732 10.46 1.68065 10.4667 1.62732 10.4667Z" fill="currentColor"/>
<path d="M8.00065 10.6654C9.47341 10.6654 10.6673 9.47146 10.6673 7.9987C10.6673 6.52594 9.47341 5.33203 8.00065 5.33203C6.52789 5.33203 5.33398 6.52594 5.33398 7.9987C5.33398 9.47146 6.52789 10.6654 8.00065 10.6654Z" fill="currentColor"/>
</svg>
