<svg width="174" height="174" viewBox="0 0 174 174" fill="none" xmlns="http://www.w3.org/2000/svg">
<rect x="2.5" y="2.5" width="169" height="169" rx="84.5" fill="#057CFF"/>
<rect x="2.5" y="2.5" width="169" height="169" rx="84.5" stroke="url(#paint0_linear_354_4012)" stroke-width="5"/>
<path d="M133.456 45.8051H130.89L109.201 24.1168C107.469 22.3843 104.646 22.3843 102.849 24.1168C101.116 25.8493 101.116 28.6726 102.849 30.4693L118.185 45.8051H55.8147L71.1505 30.4693C72.883 28.7368 72.883 25.9134 71.1505 24.1168C69.418 22.3843 66.5947 22.3843 64.798 24.1168L43.1738 45.8051H40.6072C34.8322 45.8051 22.833 45.8051 22.833 62.2318C22.833 68.4559 24.1163 72.5626 26.8113 75.2576C28.3513 76.8618 30.2122 77.6959 32.2013 78.1451C34.0622 78.5943 36.0513 78.6584 37.9763 78.6584H136.023C138.012 78.6584 139.873 78.5301 141.67 78.1451C147.06 76.8618 151.166 73.0118 151.166 62.2318C151.166 45.8051 139.167 45.8051 133.456 45.8051Z" fill="white"/>
<path d="M132.238 87H41.2494C37.2711 87 34.2552 90.5292 34.8969 94.4433L40.2869 127.425C42.0836 138.462 46.8961 151.167 68.2636 151.167H104.261C125.885 151.167 129.735 140.323 132.045 128.195L138.526 94.6358C139.296 90.6575 136.28 87 132.238 87ZM78.0811 128.388C78.0811 130.89 76.0919 132.879 73.6536 132.879C71.1511 132.879 69.1619 130.89 69.1619 128.388V107.212C69.1619 104.774 71.1511 102.721 73.6536 102.721C76.0919 102.721 78.0811 104.774 78.0811 107.212V128.388ZM105.544 128.388C105.544 130.89 103.555 132.879 101.053 132.879C98.6144 132.879 96.5611 130.89 96.5611 128.388V107.212C96.5611 104.774 98.6144 102.721 101.053 102.721C103.555 102.721 105.544 104.774 105.544 107.212V128.388Z" fill="white"/>
<defs>
<linearGradient id="paint0_linear_354_4012" x1="87" y1="0" x2="87" y2="174" gradientUnits="userSpaceOnUse">
<stop stop-color="#ADCDF4"/>
<stop offset="1" stop-color="#B4CDEC"/>
</linearGradient>
</defs>
</svg>
