<svg width="174" height="168" viewBox="0 0 174 168" fill="none" xmlns="http://www.w3.org/2000/svg">
<rect x="2.5" y="2.5" width="169" height="163" rx="81.5" fill="#057CFF"/>
<rect x="2.5" y="2.5" width="169" height="163" rx="81.5" stroke="url(#paint0_linear_119_8103)" stroke-width="5"/>
<path d="M117.8 65.5H91.8122V104.042C91.8122 106.57 89.6305 108.667 86.9997 108.667C84.3688 108.667 82.1872 106.57 82.1872 104.042V65.5H56.1997C35.6663 65.5 22.833 77.8333 22.833 97.5667V113.538C22.833 133.333 35.6663 145.667 56.1997 145.667H117.736C138.269 145.667 151.102 133.333 151.102 113.6V97.5667C151.166 77.8333 138.333 65.5 117.8 65.5Z" fill="white"/>
<path d="M91.8128 38.12L105.095 50.885C106.058 51.81 107.277 52.2417 108.496 52.2417C109.715 52.2417 110.934 51.81 111.897 50.885C113.758 49.0967 113.758 46.1367 111.897 44.3483L90.4011 23.69C88.5403 21.9017 85.4603 21.9017 83.5995 23.69L62.1036 44.3483C60.2428 46.1367 60.2428 49.0967 62.1036 50.885C63.9645 52.6733 67.0445 52.6733 68.9053 50.885L82.1878 38.12V65.5H91.8128V38.12Z" fill="white"/>
<defs>
<linearGradient id="paint0_linear_119_8103" x1="87" y1="0" x2="87" y2="168" gradientUnits="userSpaceOnUse">
<stop stop-color="#ADCDF4"/>
<stop offset="1" stop-color="#B4CDEC"/>
</linearGradient>
</defs>
</svg>
