<svg width="26" height="26" viewBox="0 0 26 26" fill="none" xmlns="http://www.w3.org/2000/svg">
<path d="M17.5395 2.1665H8.46116C4.51783 2.1665 2.16699 4.51734 2.16699 8.46067V17.539C2.16699 20.5832 3.56449 22.674 6.02366 23.4648C6.73866 23.714 7.56199 23.8332 8.46116 23.8332H17.5395C18.4387 23.8332 19.262 23.714 19.977 23.4648C22.4362 22.674 23.8337 20.5832 23.8337 17.539V8.46067C23.8337 4.51734 21.4828 2.1665 17.5395 2.1665ZM22.2087 17.539C22.2087 19.8573 21.2987 21.3198 19.4678 21.9265C18.417 19.8573 15.9253 18.384 13.0003 18.384C10.0753 18.384 7.59449 19.8465 6.53283 21.9265H6.52199C4.71283 21.3415 3.79199 19.8682 3.79199 17.5498V8.46067C3.79199 5.40567 5.40616 3.7915 8.46116 3.7915H17.5395C20.5945 3.7915 22.2087 5.40567 22.2087 8.46067V17.539Z" fill="#057CFF"/>
<path d="M13.0004 8.6665C10.8554 8.6665 9.12207 10.3998 9.12207 12.5448C9.12207 14.6898 10.8554 16.434 13.0004 16.434C15.1454 16.434 16.8787 14.6898 16.8787 12.5448C16.8787 10.3998 15.1454 8.6665 13.0004 8.6665Z" fill="#057CFF"/>
</svg>
