<svg width="31" height="31" viewBox="0 0 31 31" fill="none" xmlns="http://www.w3.org/2000/svg">
<path d="M27.4486 11.818C24.4648 7.12927 20.099 4.42969 15.5007 4.42969C13.2015 4.42969 10.9669 5.10135 8.92607 6.35427C6.88523 7.6201 5.05107 9.46719 3.55273 11.818C2.26107 13.8459 2.26107 17.1397 3.55273 19.1676C6.53648 23.8693 10.9023 26.5559 15.5007 26.5559C17.7998 26.5559 20.0344 25.8843 22.0752 24.6314C24.1161 23.3655 25.9502 21.5184 27.4486 19.1676C28.7402 17.1526 28.7402 13.8459 27.4486 11.818ZM15.5007 20.7176C12.6073 20.7176 10.2823 18.3797 10.2823 15.4993C10.2823 12.6189 12.6073 10.2809 15.5007 10.2809C18.394 10.2809 20.719 12.6189 20.719 15.4993C20.719 18.3797 18.394 20.7176 15.5007 20.7176Z" fill="#6E7781"/>
<path d="M15.4996 11.8047C13.4717 11.8047 11.8184 13.458 11.8184 15.4989C11.8184 17.5268 13.4717 19.1801 15.4996 19.1801C17.5275 19.1801 19.1938 17.5268 19.1938 15.4989C19.1938 13.4709 17.5275 11.8047 15.4996 11.8047Z" fill="#6E7781"/>
</svg>
