<svg width="34" height="35" viewBox="0 0 34 35" fill="none" xmlns="http://www.w3.org/2000/svg">
<path d="M10.2 31.668H13.8833C18.4167 31.668 21.25 28.8346 21.25 24.3013V18.5638H12.3958C11.815 18.5638 11.3333 18.0821 11.3333 17.5013C11.3333 16.9205 11.815 16.4388 12.3958 16.4388H21.25V10.7013C21.25 6.16797 18.4167 3.33464 13.8833 3.33464H10.2142C5.68083 3.33464 2.8475 6.16797 2.8475 10.7013L2.8475 24.3013C2.83333 28.8346 5.66667 31.668 10.2 31.668Z" fill="currentColor"/>
<path d="M27.5409 18.5624L24.6084 21.4949C24.3959 21.7074 24.2968 21.9766 24.2968 22.2457C24.2968 22.5149 24.3959 22.7982 24.6084 22.9966C25.0193 23.4074 25.6993 23.4074 26.1101 22.9966L30.8559 18.2507C31.2668 17.8399 31.2668 17.1599 30.8559 16.7491L26.1101 12.0032C25.6993 11.5924 25.0193 11.5924 24.6084 12.0032C24.1976 12.4141 24.1976 13.0941 24.6084 13.5049L27.5409 16.4374H21.2509V18.5624H27.5409Z" fill="currentColor"/>
</svg>
