<svg width="29" height="29" viewBox="0 0 29 29" fill="none" xmlns="http://www.w3.org/2000/svg">
<path d="M25.375 26.5834H3.625C3.12958 26.5834 2.71875 26.1725 2.71875 25.6771C2.71875 25.1817 3.12958 24.7709 3.625 24.7709H25.375C25.8704 24.7709 26.2812 25.1817 26.2812 25.6771C26.2812 26.1725 25.8704 26.5834 25.375 26.5834Z" fill="currentColor"/>
<path d="M22.9824 4.20505C20.6383 1.86088 18.3424 1.80046 15.9379 4.20505L14.4758 5.66713C14.3549 5.78796 14.3066 5.9813 14.3549 6.15046C15.2733 9.35255 17.8349 11.9142 21.037 12.8325C21.0854 12.8446 21.1337 12.8567 21.182 12.8567C21.3149 12.8567 21.4358 12.8084 21.5324 12.7117L22.9824 11.2496C24.1787 10.0655 24.7587 8.91755 24.7587 7.75755C24.7708 6.5613 24.1908 5.4013 22.9824 4.20505Z" fill="currentColor"/>
<path d="M18.8621 13.9321C18.5116 13.7629 18.1733 13.5938 17.8471 13.4004C17.5812 13.2433 17.3275 13.0742 17.0737 12.8929C16.8683 12.76 16.6266 12.5667 16.3971 12.3733C16.3729 12.3613 16.2883 12.2888 16.1916 12.1921C15.7929 11.8538 15.3458 11.4188 14.9471 10.9354C14.9108 10.9113 14.8504 10.8267 14.7658 10.7179C14.645 10.5729 14.4396 10.3313 14.2583 10.0533C14.1133 9.87209 13.9441 9.60626 13.7871 9.34042C13.5937 9.01417 13.4246 8.68792 13.2554 8.34959C13.2062 8.2442 13.1601 8.13983 13.1164 8.03678C12.9743 7.70112 12.5387 7.6042 12.2809 7.86195L5.24415 14.8988C5.08706 15.0558 4.94206 15.3579 4.90581 15.5633L4.25331 20.1913C4.13248 21.0129 4.36206 21.7863 4.86956 22.3058C5.30456 22.7288 5.90873 22.9583 6.56123 22.9583C6.70623 22.9583 6.85123 22.9463 6.99623 22.9221L11.6362 22.2696C11.8537 22.2333 12.1558 22.0883 12.3008 21.9313L19.3305 14.9016C19.59 14.6421 19.4917 14.1977 19.1531 14.0561C19.0581 14.0164 18.9615 13.9752 18.8621 13.9321Z" fill="currentColor"/>
</svg>
