<svg width="38" height="39" viewBox="0 0 38 39" fill="none" xmlns="http://www.w3.org/2000/svg">
<path d="M25.6335 3.66797H12.3652C6.60185 3.66797 3.16602 7.1038 3.16602 12.8671V26.1196C3.16602 31.8988 6.60185 35.3346 12.3652 35.3346H25.6177C31.381 35.3346 34.8168 31.8988 34.8168 26.1355V12.8671C34.8327 7.1038 31.3969 3.66797 25.6335 3.66797ZM26.726 18.7571C26.726 19.3746 26.2352 19.8655 25.6177 19.8655C25.0002 19.8655 24.5093 19.3746 24.5093 18.7571V18.4721L20.2027 22.7788C19.9652 23.0163 19.6485 23.1271 19.316 23.0955C18.9835 23.0638 18.6827 22.8896 18.5085 22.6046L16.8935 20.198L13.1252 23.9663C12.9035 24.188 12.6343 24.283 12.3493 24.283C12.0643 24.283 11.7793 24.1721 11.5735 23.9663C11.146 23.5388 11.146 22.8421 11.5735 22.3988L16.2918 17.6805C16.5293 17.443 16.846 17.3321 17.1785 17.3638C17.511 17.3955 17.8118 17.5696 17.986 17.8546L19.601 20.2613L22.9418 16.9205H22.6569C22.0394 16.9205 21.5485 16.4296 21.5485 15.8121C21.5485 15.1946 22.0394 14.7038 22.6569 14.7038H25.6019C25.7444 14.7038 25.8869 14.7355 26.0294 14.783C26.2985 14.8938 26.5202 15.1155 26.631 15.3846C26.6943 15.5271 26.7102 15.6696 26.7102 15.8121V18.7571H26.726Z" fill="#6E7781"/>
</svg>
