<svg width="25" height="25" viewBox="0 0 25 25" fill="none" xmlns="http://www.w3.org/2000/svg">
<path d="M16.8643 2.08337H8.13509C4.34342 2.08337 2.08301 4.34379 2.08301 8.13546V16.8542C2.08301 20.6563 4.34342 22.9167 8.13509 22.9167H16.8538C20.6455 22.9167 22.9059 20.6563 22.9059 16.8646V8.13546C22.9163 4.34379 20.6559 2.08337 16.8643 2.08337ZM8.82259 9.35421L11.9476 6.22921C12.0205 6.15629 12.1038 6.10421 12.1976 6.06254C12.3851 5.97921 12.6038 5.97921 12.7913 6.06254C12.8851 6.10421 12.9684 6.15629 13.0413 6.22921L16.1663 9.35421C16.4684 9.65629 16.4684 10.1563 16.1663 10.4584C16.0101 10.6146 15.8122 10.6875 15.6143 10.6875C15.4163 10.6875 15.2184 10.6146 15.0622 10.4584L13.2705 8.66671V15.1146C13.2705 15.5417 12.9163 15.8959 12.4893 15.8959C12.0622 15.8959 11.708 15.5417 11.708 15.1146V8.66671L9.91634 10.4584C9.61426 10.7605 9.11426 10.7605 8.81217 10.4584C8.51009 10.1563 8.52051 9.66671 8.82259 9.35421ZM18.9997 17.9375C16.9059 18.6355 14.708 18.9896 12.4997 18.9896C10.2913 18.9896 8.09342 18.6355 5.99967 17.9375C5.59342 17.8021 5.37467 17.3542 5.51009 16.948C5.64551 16.5417 6.09342 16.3125 6.49967 16.4584C10.3747 17.75 14.6351 17.75 18.5101 16.4584C18.9163 16.323 19.3643 16.5417 19.4997 16.948C19.6247 17.3646 19.4059 17.8021 18.9997 17.9375Z" fill="#6E7781"/>
</svg>
