<svg width="16" height="16" viewBox="0 0 16 16" fill="none" xmlns="http://www.w3.org/2000/svg">
<path d="M10.794 1.33203H5.20732C2.78065 1.33203 1.33398 2.7787 1.33398 5.20536V10.7854C1.33398 13.2187 2.78065 14.6654 5.20732 14.6654H10.7873C13.214 14.6654 14.6607 13.2187 14.6607 10.792V5.20536C14.6673 2.7787 13.2207 1.33203 10.794 1.33203ZM11.214 9.49203L8.35398 12.352C8.26065 12.4454 8.13398 12.4987 8.00065 12.4987C7.86732 12.4987 7.74065 12.4454 7.64732 12.352L4.78732 9.49203C4.59398 9.2987 4.59398 8.9787 4.78732 8.78536C4.98065 8.59203 5.30065 8.59203 5.49398 8.78536L7.50065 10.792V3.9987C7.50065 3.72536 7.72732 3.4987 8.00065 3.4987C8.27398 3.4987 8.50065 3.72536 8.50065 3.9987V10.792L10.5073 8.78536C10.7007 8.59203 11.0206 8.59203 11.214 8.78536C11.314 8.88536 11.3607 9.01203 11.3607 9.1387C11.3607 9.26536 11.3073 9.3987 11.214 9.49203Z" fill="currentColor"/>
</svg>
