<svg width="30" height="30" viewBox="0 0 30 30" fill="none" xmlns="http://www.w3.org/2000/svg">
<path d="M21 2.5H17.75C13.75 2.5 11.25 5 11.25 9V14.0625H19.0625C19.575 14.0625 20 14.4875 20 15C20 15.5125 19.575 15.9375 19.0625 15.9375H11.25V21C11.25 25 13.75 27.5 17.75 27.5H20.9875C24.9875 27.5 27.4875 25 27.4875 21V9C27.5 5 25 2.5 21 2.5Z" fill="white"/>
<path d="M5.6998 14.0633L8.2873 11.4758C8.4748 11.2883 8.5623 11.0508 8.5623 10.8133C8.5623 10.5758 8.4748 10.3258 8.2873 10.1508C7.9248 9.78828 7.3248 9.78828 6.9623 10.1508L2.7748 14.3383C2.4123 14.7008 2.4123 15.3008 2.7748 15.6633L6.9623 19.8508C7.3248 20.2133 7.9248 20.2133 8.2873 19.8508C8.6498 19.4883 8.6498 18.8883 8.2873 18.5258L5.6998 15.9383H11.2498V14.0633H5.6998V14.0633Z" fill="white"/>
</svg>
