<svg width="40" height="40" viewBox="0 0 40 40" fill="none" xmlns="http://www.w3.org/2000/svg">
<g filter="url(#filter0_d_356_4931)">
<rect x="4" width="32" height="32" rx="16" fill="#057CFF" shape-rendering="crispEdges"/>
<path d="M25.85 8.90005C24.2333 7.28338 22.65 7.24172 20.9916 8.90005L19.9833 9.90838C19.9 9.99172 19.8666 10.125 19.9 10.2417C20.5333 12.45 22.3 14.2167 24.5083 14.85C24.5416 14.8584 24.575 14.8667 24.6083 14.8667C24.7 14.8667 24.7833 14.8334 24.85 14.7667L25.85 13.7584C26.675 12.9417 27.075 12.15 27.075 11.35C27.0833 10.525 26.6833 9.72505 25.85 8.90005Z" fill="white"/>
<path d="M23.0084 15.6077C22.7668 15.491 22.5334 15.3743 22.3084 15.241C22.1251 15.1327 21.9501 15.016 21.7751 14.891C21.6334 14.7993 21.4668 14.666 21.3084 14.5327C21.2918 14.5243 21.2334 14.4743 21.1668 14.4077C20.8918 14.1743 20.5834 13.8743 20.3084 13.541C20.2834 13.5243 20.2418 13.466 20.1834 13.391C20.1001 13.291 19.9584 13.1243 19.8334 12.9327C19.7334 12.8077 19.6168 12.6243 19.5084 12.441C19.3751 12.216 19.2584 11.991 19.1418 11.7577C18.9888 11.4299 18.5586 11.3325 18.3028 11.5883L13.6168 16.2743C13.5084 16.3827 13.4084 16.591 13.3834 16.7327L12.9334 19.9243C12.8501 20.491 13.0084 21.0243 13.3584 21.3827C13.6584 21.6743 14.0751 21.8327 14.5251 21.8327C14.6251 21.8327 14.7251 21.8243 14.8251 21.8077L18.0251 21.3577C18.1751 21.3327 18.3834 21.2327 18.4834 21.1243L23.1772 16.4306C23.4279 16.1799 23.3337 15.7486 23.0084 15.6077Z" fill="white"/>
</g>
<defs>
<filter id="filter0_d_356_4931" x="0" y="0" width="40" height="40" filterUnits="userSpaceOnUse" color-interpolation-filters="sRGB">
<feFlood flood-opacity="0" result="BackgroundImageFix"/>
<feColorMatrix in="SourceAlpha" type="matrix" values="0 0 0 0 0 0 0 0 0 0 0 0 0 0 0 0 0 0 127 0" result="hardAlpha"/>
<feOffset dy="4"/>
<feGaussianBlur stdDeviation="2"/>
<feComposite in2="hardAlpha" operator="out"/>
<feColorMatrix type="matrix" values="0 0 0 0 0 0 0 0 0 0 0 0 0 0 0 0 0 0 0.25 0"/>
<feBlend mode="normal" in2="BackgroundImageFix" result="effect1_dropShadow_356_4931"/>
<feBlend mode="normal" in="SourceGraphic" in2="effect1_dropShadow_356_4931" result="shape"/>
</filter>
</defs>
</svg>
