<svg width="16" height="16" viewBox="0 0 16 16" fill="none" xmlns="http://www.w3.org/2000/svg">
<path d="M4.66536 1.33301H3.9987C1.9987 1.33301 1.33203 2.52634 1.33203 3.99967V4.66634V13.9997C1.33203 14.553 1.9587 14.8663 2.3987 14.533L3.5387 13.6797C3.80536 13.4797 4.1787 13.5063 4.4187 13.7463L5.52536 14.8597C5.78536 15.1197 6.21203 15.1197 6.47203 14.8597L7.59203 13.7397C7.82537 13.5063 8.1987 13.4797 8.4587 13.6797L9.5987 14.533C10.0387 14.8597 10.6654 14.5463 10.6654 13.9997V2.66634C10.6654 1.93301 11.2654 1.33301 11.9987 1.33301H4.66536ZM3.9787 9.33967C3.61203 9.33967 3.31203 9.03967 3.31203 8.67301C3.31203 8.30634 3.61203 8.00634 3.9787 8.00634C4.34536 8.00634 4.64536 8.30634 4.64536 8.67301C4.64536 9.03967 4.34536 9.33967 3.9787 9.33967ZM3.9787 6.67301C3.61203 6.67301 3.31203 6.37301 3.31203 6.00634C3.31203 5.63967 3.61203 5.33967 3.9787 5.33967C4.34536 5.33967 4.64536 5.63967 4.64536 6.00634C4.64536 6.37301 4.34536 6.67301 3.9787 6.67301ZM7.9987 9.17301H5.9987C5.72536 9.17301 5.4987 8.94634 5.4987 8.67301C5.4987 8.39967 5.72536 8.17301 5.9987 8.17301H7.9987C8.27203 8.17301 8.4987 8.39967 8.4987 8.67301C8.4987 8.94634 8.27203 9.17301 7.9987 9.17301ZM7.9987 6.50634H5.9987C5.72536 6.50634 5.4987 6.27968 5.4987 6.00634C5.4987 5.73301 5.72536 5.50634 5.9987 5.50634H7.9987C8.27203 5.50634 8.4987 5.73301 8.4987 6.00634C8.4987 6.27968 8.27203 6.50634 7.9987 6.50634Z" fill="currentColor"/>
<path d="M12.008 1.33301V2.33301C12.448 2.33301 12.868 2.51301 13.1746 2.81301C13.4946 3.13967 13.668 3.55967 13.668 3.99967V5.61301C13.668 6.10634 13.448 6.33301 12.948 6.33301H11.668V2.67301C11.668 2.48634 11.8213 2.33301 12.008 2.33301V1.33301ZM12.008 1.33301C11.268 1.33301 10.668 1.93301 10.668 2.67301V7.33301H12.948C14.0013 7.33301 14.668 6.66634 14.668 5.61301V3.99967C14.668 3.26634 14.368 2.59967 13.888 2.11301C13.4013 1.63301 12.7413 1.33967 12.008 1.33301C12.0146 1.33301 12.008 1.33301 12.008 1.33301Z" fill="currentColor"/>
</svg>
